<?xml version="1.0" standalone="no"?>
<!DOCTYPE svg PUBLIC "-//W3C//DTD SVG 20010904//EN"
 "http://www.w3.org/TR/2001/REC-SVG-20010904/DTD/svg10.dtd">
<svg version="1.0" xmlns="http://www.w3.org/2000/svg"
 width="500.000000pt" height="500.000000pt" viewBox="0 0 500.000000 500.000000"
 preserveAspectRatio="xMidYMid meet">

<g transform="translate(0.000000,500.000000) scale(0.100000,-0.100000)"
fill="#000000" stroke="none">
<path d="M2331 4268 c-745 -86 -1356 -160 -1359 -163 -5 -5 326 -2716 332
-2723 2 -1 74 7 159 19 l156 22 -25 33 c-14 18 -50 54 -80 79 -68 59 -87 94
-86 163 1 92 44 164 164 274 202 185 244 228 278 284 34 56 35 62 34 149 -2
97 -20 165 -60 225 -21 30 -24 32 -24 12 0 -36 -16 -25 -38 26 -11 26 -30 56
-41 66 -21 19 -21 19 -21 -8 0 -40 -19 -22 -26 26 -7 39 -7 40 -19 18 l-13
-23 -7 22 c-4 13 -11 46 -15 75 -4 28 -17 87 -29 130 -13 49 -21 109 -21 159
0 78 0 79 23 72 12 -4 58 -9 102 -12 73 -4 85 -2 134 24 86 44 96 65 95 191
-1 83 -7 126 -27 192 -27 90 -126 334 -133 327 -2 -2 5 -33 15 -68 39 -124 73
-285 75 -344 2 -109 -44 -184 -144 -235 -86 -44 -179 -11 -294 104 -79 80
-138 179 -140 235 0 22 11 58 27 90 l29 54 -28 -7 c-24 -6 -26 -5 -14 9 7 8
39 35 71 60 57 42 58 44 32 47 -26 4 -23 6 27 29 l55 24 -35 5 c-33 5 -27 9
90 57 69 29 135 55 148 58 46 13 83 -6 156 -80 58 -59 82 -76 128 -90 l56 -18
93 38 c52 21 109 50 127 66 39 35 92 63 92 50 0 -5 -4 -12 -9 -15 -5 -3 -11
-15 -14 -26 -5 -18 -2 -17 27 5 39 30 50 32 36 6 -17 -32 -12 -33 40 -6 28 14
50 21 50 16 0 -6 -6 -13 -12 -18 -15 -9 53 -21 128 -22 73 -1 143 37 190 102
64 89 93 115 144 127 59 14 91 2 173 -64 163 -134 297 -423 208 -451 -29 -9
-68 11 -127 67 -71 67 -129 155 -150 226 -29 101 -45 140 -61 154 -15 11 -16
11 -9 -7 4 -11 13 -72 21 -136 9 -76 21 -131 34 -157 23 -45 25 -60 12 -81 -7
-11 -17 -7 -49 20 -22 19 -69 49 -104 68 l-63 34 50 -43 c79 -69 180 -175 216
-226 47 -69 69 -134 78 -238 l9 -92 64 -85 c108 -143 135 -226 117 -353 -9
-67 -41 -162 -62 -183 -19 -19 -157 -37 -189 -24 -27 10 -27 11 -13 45 26 62
17 61 -52 -6 -147 -141 -249 -171 -408 -121 -70 22 -227 102 -309 157 -38 25
-71 44 -74 41 -9 -9 98 -113 181 -176 43 -32 77 -59 75 -60 -2 0 -48 -6 -103
-12 -89 -11 -100 -14 -103 -33 -2 -11 20 -195 47 -409 28 -214 49 -390 48
-391 -1 -2 -25 -6 -53 -9 l-51 -7 -22 60 c-48 129 -136 231 -241 280 -47 22
-71 27 -160 28 -93 2 -98 2 -45 -6 159 -22 257 -96 333 -251 79 -163 96 -300
47 -406 -14 -32 -40 -73 -58 -91 -69 -71 -211 -93 -319 -48 -32 13 -58 21 -58
17 0 -15 77 -81 112 -96 46 -19 178 -19 231 -1 121 44 183 150 189 326 2 44 5
80 8 80 3 1 24 5 48 9 23 5 44 5 47 2 2 -4 11 -62 21 -129 l17 -122 31 5 c17
3 384 48 815 100 431 52 784 95 785 97 2 2 -27 293 -64 648 l-66 645 -41 -3
-41 -2 -6 47 c-4 27 -40 399 -81 827 -41 429 -76 780 -78 781 -1 1 -611 -70
-1356 -157z m1566 -2123 c24 -285 42 -520 40 -521 -5 -5 -1441 -264 -1444
-260 -7 7 -126 1036 -121 1042 12 11 201 33 217 25 37 -20 174 -43 214 -37 62
10 127 43 170 84 l37 37 413 77 c226 42 416 75 422 74 6 -2 28 -223 52 -521z"/>
<path d="M3665 2270 l-99 -210 -25 17 c-14 9 -77 50 -139 91 -61 42 -114 73
-115 71 -2 -2 -54 -88 -116 -191 -62 -104 -114 -188 -117 -188 -3 0 -60 16
-127 35 -67 19 -126 35 -132 35 -5 0 -61 -78 -122 -173 -105 -162 -113 -177
-113 -223 0 -27 4 -54 8 -60 5 -7 215 28 641 107 348 65 634 119 635 121 5 6
-69 778 -74 778 -4 0 -51 -94 -105 -210z"/>
<path d="M2942 3508 c1 -7 -2 -23 -6 -36 -6 -17 0 -38 18 -77 34 -69 43 -75
111 -79 l57 -4 -7 61 c-8 75 -26 112 -65 132 -36 19 -112 20 -108 3z"/>
<path d="M2382 3430 c-53 -11 -104 -42 -127 -77 -23 -35 -23 -115 1 -150 31
-49 43 -53 94 -33 25 9 68 23 97 30 29 6 57 18 64 26 18 22 15 108 -5 139 -14
21 -15 29 -5 41 6 8 10 16 8 19 -11 10 -87 13 -127 5z"/>
<path d="M3090 3003 c-56 -8 -117 -24 -152 -40 -33 -14 -38 -21 -38 -49 0 -24
8 -39 31 -59 68 -56 152 -85 198 -65 56 23 121 169 91 205 -12 14 -68 18 -130
8z"/>
<path d="M3567 970 c-96 -25 -164 -87 -188 -174 -7 -23 -12 -75 -12 -116 -1
-206 98 -312 293 -314 108 -1 169 17 224 66 64 56 81 107 81 243 0 90 -4 118
-21 155 -46 98 -120 141 -254 146 -47 2 -102 -1 -123 -6z m194 -106 c73 -37
111 -140 90 -249 -19 -104 -67 -148 -169 -153 -130 -7 -193 55 -200 196 -5 83
13 145 53 182 48 45 160 57 226 24z"/>
<path d="M4250 964 c-80 -21 -129 -59 -165 -129 -28 -54 -30 -67 -30 -159 1
-112 21 -174 73 -229 74 -79 242 -107 395 -66 l37 10 0 159 0 160 -93 0 -92 0
-16 -45 -16 -44 51 -3 51 -3 0 -75 0 -75 -55 -3 c-143 -9 -219 65 -220 211 0
82 15 122 62 163 60 53 200 63 303 24 l26 -10 -3 53 -3 52 -50 12 c-69 16
-189 14 -255 -3z"/>
<path d="M460 669 l0 -301 188 4 c169 3 191 5 227 25 86 46 125 121 133 254 9
156 -33 249 -131 295 -49 22 -63 24 -234 24 l-183 0 0 -301z m350 189 c33 -17
51 -35 68 -68 40 -80 25 -215 -32 -275 -39 -41 -88 -55 -193 -55 l-83 0 0 210
0 210 98 0 c82 0 105 -4 142 -22z"/>
<path d="M1149 679 c-68 -161 -125 -296 -127 -301 -2 -4 23 -8 55 -8 l58 0 96
238 c52 130 99 236 104 235 7 -2 75 -146 90 -192 6 -20 3 -21 -55 -21 l-61 0
-19 -46 c-11 -25 -20 -48 -20 -50 0 -2 44 -4 99 -4 l98 0 37 -80 36 -80 60 0
c51 0 59 2 53 17 -4 9 -61 143 -129 297 l-122 281 -64 3 -64 3 -125 -292z"/>
<path d="M1600 925 l0 -45 90 0 90 0 0 -255 0 -255 55 0 55 0 0 255 0 255 85
0 85 0 0 45 0 45 -230 0 -230 0 0 -45z"/>
<path d="M2181 773 c-46 -109 -103 -244 -127 -300 l-43 -103 57 0 57 0 95 234
c52 128 99 234 105 236 9 2 95 -180 95 -201 0 -4 -28 -9 -61 -11 l-61 -3 -19
-47 -19 -48 98 0 98 0 39 -80 39 -80 58 0 c32 0 58 1 58 3 0 1 -58 135 -128
297 l-128 295 -65 3 -64 3 -84 -198z"/>
<path d="M2730 669 l0 -301 188 4 c169 3 191 5 227 25 49 26 76 54 106 113 21
40 24 58 24 170 0 109 -3 130 -22 165 -27 51 -57 79 -113 104 -40 18 -65 21
-227 21 l-183 0 0 -301z m350 189 c60 -30 90 -88 90 -173 0 -82 -16 -133 -54
-171 -40 -40 -89 -54 -193 -54 l-83 0 0 210 0 210 98 0 c82 0 105 -4 142 -22z"/>
</g>
</svg>
